<svg width="198" height="54" viewBox="0 0 198 54" fill="none" xmlns="http://www.w3.org/2000/svg">
<g clip-path="url(#clip0_21_46)">
<path d="M36.7704 52.7456L28.2132 32.532C24.9815 32.8293 22.3173 33.4753 20.2178 34.4668C18.1181 35.4613 16.4245 36.666 15.1397 38.0841C13.8518 39.5023 12.8143 40.9864 12.0269 42.5306C11.2457 44.0689 10.5529 45.511 9.95173 46.8571C9.24374 48.6927 8.4686 50.2189 7.63243 51.4357C6.80236 52.6556 5.52674 53.2384 3.81166 53.1904C3.6072 53.1423 3.41494 53.0943 3.23793 53.0462C3.06704 52.998 2.85341 52.8718 2.60318 52.6736C0.528 51.7783 -0.308176 49.615 0.100757 46.1841C0.30217 44.5435 0.668378 42.693 1.19938 40.632C1.72733 38.5648 2.44753 36.3386 3.36001 33.95C4.71802 30.3687 6.31714 26.5772 8.15733 22.5693C10.0036 18.5645 11.9476 14.6106 13.9922 10.7079C16.043 6.79916 18.0266 3.25395 19.9492 0.0722656H20.4863L43.1424 52.7456H36.7704ZM27.9814 32.0031L16.8486 6.4897C14.5202 10.8641 12.1795 15.4789 9.82967 20.3341C7.48595 25.1831 5.50231 29.7679 3.8849 34.0942C2.97243 36.4828 2.25223 38.697 1.72428 40.74C1.19328 42.777 0.82707 44.5918 0.625655 46.1841C0.576827 47.7223 0.701948 49.0291 1.00407 50.1018C1.30314 51.1684 1.91043 51.8503 2.8229 52.1448C3.07314 52.2018 3.26236 52.2529 3.38441 52.301C3.51259 52.3491 3.68044 52.4212 3.8849 52.5174C5.39856 52.6225 6.5338 52.1028 7.29063 50.955C8.05356 49.8103 8.73715 48.3923 9.34139 46.7008C9.95173 45.3067 10.6597 43.8286 11.4654 42.2664C12.2711 40.698 13.3392 39.1898 14.6758 37.7476C16.0186 36.3055 17.752 35.0647 19.876 34.0222C22 32.9737 24.7007 32.3007 27.9814 32.0031Z" fill="white"/>
<path d="M69.7346 23.6507C72.3621 24.2456 74.483 25.3903 76.0944 27.0878C77.7119 28.7793 79.0637 30.7712 80.1471 33.0606C81.2365 35.3439 82.2864 37.6513 83.2964 39.9827C84.2547 42.122 85.2404 44.1259 86.2505 45.9916C87.2668 47.8604 88.4051 49.3535 89.6686 50.4742C90.9289 51.5889 92.3936 52.1446 94.0629 52.1446V52.7456C90.1233 52.7456 87.0013 52.2257 84.7002 51.1832C82.4054 50.1347 80.675 48.7526 79.5122 47.0371C78.3466 45.3245 77.5135 43.4498 77.0099 41.4128C76.5034 39.3698 76.1128 37.3329 75.8381 35.2958C75.5604 33.2528 75.1545 31.3751 74.6173 29.6595C74.0863 27.938 73.2043 26.5559 71.9685 25.5136C70.7295 24.4739 68.8984 23.9512 66.4754 23.9512C62.6333 23.9512 59.554 22.1605 57.2347 18.5792C55.9164 16.4882 54.9307 13.9255 54.2806 10.888V52.7456H48.2871V0H61.6292C65.3644 0 68.758 0.402592 71.8097 1.20177C74.8675 1.99494 77.3211 3.25078 79.1706 4.9633C81.0169 6.67881 81.9415 8.95317 81.9415 11.7893C81.9415 14.2259 81.383 16.2779 80.2692 17.9424C79.1523 19.6097 77.6721 20.9047 75.8258 21.8241C73.9857 22.7464 71.9562 23.3563 69.7346 23.6507ZM75.9479 11.7893C75.9479 8.95317 75.2642 6.71486 73.8972 5.07145C72.536 3.43103 70.7722 2.27734 68.5994 1.61037C66.4264 0.937377 64.101 0.600883 61.6292 0.600883H54.2806V5.22769C54.2806 7.96171 54.592 10.3953 55.2205 12.5344C55.8554 14.6736 56.7007 16.5664 57.7596 18.2068C58.8247 19.7451 60.1154 21.0008 61.6292 21.9683C63.1429 22.9387 64.7573 23.4225 66.4754 23.4225H67.0125C69.4355 23.2781 71.5321 22.2867 73.299 20.4421C75.0628 18.6003 75.9479 15.7161 75.9479 11.7893Z" fill="white"/>
<path d="M117.18 24.0955C115.608 24.0955 114.29 24.4321 113.224 25.105C112.166 25.778 111.332 26.5412 110.722 27.3885C110.118 28.2296 109.691 28.8996 109.44 29.3953C108.031 32.577 106.932 36.0472 106.145 39.8027C105.363 43.5611 104.973 47.8755 104.973 52.7456H99.2109V0.0722656H104.973V43.1916C105.583 38.5708 106.59 34.4788 108 30.9217C109.416 27.3643 111.186 24.0595 113.31 21.0071C115.434 17.9485 117.833 14.851 120.512 11.7174C120.512 11.7174 120.762 11.4049 121.269 10.78C121.772 10.1551 122.349 9.37393 123.002 8.43656C123.661 7.49316 124.241 6.48669 124.748 5.42012C125.251 4.34756 125.517 3.32606 125.541 2.35562C125.572 1.37919 125.181 0.619069 124.37 0.0722656H136.955C135.636 0.321632 134.306 0.817361 132.963 1.56245C131.626 2.30754 130.403 3.10673 129.289 3.95397C128.181 4.80422 127.287 5.52828 126.603 6.12916C125.926 6.72404 125.56 7.01847 125.505 7.01847C122.575 10.3444 119.883 13.502 117.436 16.4884C114.985 19.4688 112.852 22.6534 111.039 26.0424C111.69 25.3935 112.52 24.8107 113.53 24.2878C114.546 23.7591 115.764 23.4947 117.18 23.4947C119.856 23.4947 122.078 23.9845 123.845 24.9608C125.608 25.9314 127.086 27.2142 128.276 28.8065C129.463 30.3928 130.497 32.1565 131.376 34.0942C132.261 36.0351 133.137 37.973 134.001 39.9109C135.008 42.0981 136.006 44.1259 136.992 45.9918C137.974 47.8606 139.097 49.3537 140.361 50.4744C141.621 51.5889 143.138 52.1448 144.914 52.1448V52.7456C140.965 52.7456 137.846 52.2259 135.551 51.1834C133.256 50.1349 131.514 48.7649 130.326 47.0733C129.136 45.3849 128.303 43.522 127.824 41.4852C127.342 39.4422 126.948 37.4051 126.64 35.3682C126.338 33.3252 125.923 31.4593 125.395 29.7679C124.864 28.0795 123.982 26.7124 122.746 25.6698C121.507 24.6213 119.652 24.0955 117.18 24.0955Z" fill="white"/>
<path d="M155.818 21.7881V52.7456H150.057V0.0722656H155.818V17.6781C155.818 19.8654 156.197 21.5208 156.954 22.6415C157.71 23.7651 158.717 24.5252 159.981 24.9248C161.25 25.3185 162.666 25.5017 164.229 25.4776C165.797 25.4536 167.403 25.3935 169.038 25.2974C170.68 25.1952 172.261 25.1831 173.775 25.2612C175.294 25.3334 176.622 25.6819 177.754 26.3068C178.892 26.9257 179.738 27.9772 180.293 29.4675V0.0722656H186.201V52.7456H180.293V33.4933C180.293 31.3542 179.915 29.7288 179.158 28.6143C178.401 27.4936 177.391 26.7486 176.131 26.379C174.867 26.0034 173.463 25.8142 171.919 25.8142C170.381 25.8142 168.788 25.8682 167.146 25.9702C165.501 26.0665 163.924 26.0665 162.41 25.9702C160.896 25.8682 159.557 25.5197 158.394 24.9248C157.228 24.324 156.371 23.2783 155.818 21.7881Z" fill="white"/>
<path d="M191.355 52.7456V0.0722656H197.043V52.7456H191.355Z" fill="white"/>
</g>
<defs>
<clipPath id="clip0_21_46">
<rect width="198" height="54" fill="white"/>
</clipPath>
</defs>
</svg>
