<svg width="110" height="30" viewBox="0 0 110 30" fill="none" xmlns="http://www.w3.org/2000/svg">
<path d="M20.428 29.303L15.674 18.0732C13.8786 18.2384 12.3985 18.5973 11.2321 19.1481C10.0656 19.7006 9.1247 20.3699 8.41093 21.1577C7.69547 21.9456 7.11903 22.7701 6.68162 23.628C6.2476 24.4826 5.86274 25.2838 5.52874 26.0316C5.13541 27.0514 4.70478 27.8993 4.24024 28.5753C3.77909 29.253 3.07041 29.5768 2.11759 29.5501C2.004 29.5234 1.89719 29.4967 1.79885 29.47C1.70391 29.4432 1.58523 29.3731 1.44621 29.263C0.293333 28.7656 -0.171209 27.5638 0.0559759 25.6577C0.167872 24.7463 0.371321 23.7182 0.666322 22.5732C0.959627 21.4248 1.35974 20.188 1.86667 18.861C2.62112 16.8714 3.50952 14.765 4.53185 12.5384C5.55757 10.3135 6.63754 8.11691 7.77346 5.94872C8.91277 3.7772 10.0148 1.80764 11.0829 0.0400391H11.3813L23.968 29.303H20.428ZM15.5452 17.7794L9.36036 3.60528C8.06676 6.03552 6.76639 8.59928 5.46093 11.2966C4.15886 13.9905 3.05684 16.5376 2.15828 18.9411C1.65135 20.2681 1.25124 21.4982 0.957931 22.6332C0.662931 23.7649 0.459483 24.7731 0.347586 25.6577C0.320459 26.5123 0.389971 27.2383 0.557816 27.8342C0.723965 28.4268 1.06135 28.8056 1.56828 28.9692C1.7073 29.0009 1.81242 29.0293 1.88023 29.056C1.95144 29.0827 2.04469 29.1228 2.15828 29.1762C2.9992 29.2346 3.62989 28.9459 4.05035 28.3082C4.4742 27.6723 4.85397 26.8845 5.18966 25.9448C5.52874 25.1703 5.92208 24.3491 6.36966 23.4812C6.81725 22.6099 7.41064 21.772 8.15323 20.9708C8.89921 20.1696 9.8622 19.4803 11.0422 18.9011C12.2222 18.3186 13.7226 17.9447 15.5452 17.7794Z" fill="#7A876D"/>
<path d="M38.742 13.1393C40.2017 13.4698 41.38 14.1057 42.2752 15.0488C43.1738 15.9885 43.9248 17.0951 44.5267 18.367C45.1319 19.6355 45.7152 20.9174 46.2763 22.2126C46.8087 23.4011 47.3563 24.5144 47.9175 25.5509C48.4821 26.5891 49.1145 27.4186 49.8164 28.0412C50.5166 28.6605 51.3303 28.9692 52.2577 28.9692V29.3031C50.069 29.3031 48.3346 29.0143 47.0562 28.4351C45.7813 27.8526 44.82 27.0848 44.174 26.1317C43.5264 25.1803 43.0636 24.1388 42.7838 23.0071C42.5024 21.8721 42.2854 20.7405 42.1328 19.6088C41.9785 18.4738 41.753 17.4306 41.4546 16.4775C41.1596 15.5211 40.6696 14.7533 39.983 14.1742C39.2947 13.5966 38.2774 13.3062 36.9313 13.3062C34.7968 13.3062 33.0861 12.3114 31.7976 10.3218C31.0652 9.16013 30.5176 7.73637 30.1564 6.04889V29.3031H26.8267V0H34.239C36.3141 0 38.1994 0.223662 39.8948 0.667648C41.5936 1.1083 42.9567 1.80599 43.9842 2.75739C45.0099 3.71045 45.5236 4.97398 45.5236 6.54963C45.5236 7.90328 45.2133 9.04329 44.5945 9.96798C43.974 10.8943 43.1517 11.6137 42.126 12.1245C41.1037 12.6369 39.9762 12.9757 38.742 13.1393ZM42.1938 6.54963C42.1938 4.97398 41.814 3.73048 41.0545 2.81747C40.2983 1.90613 39.3184 1.26519 38.1113 0.894648C36.9041 0.520765 35.6122 0.333824 34.239 0.333824H30.1564V2.90427C30.1564 4.42317 30.3294 5.77515 30.6786 6.96357C31.0313 8.15198 31.5009 9.20353 32.0892 10.1149C32.6809 10.9695 33.398 11.6671 34.239 12.2046C35.0799 12.7437 35.9768 13.0125 36.9313 13.0125H37.2297C38.5758 12.9323 39.7406 12.3815 40.7222 11.3567C41.7021 10.3335 42.1938 8.73116 42.1938 6.54963Z" fill="#7A876D"/>
<path d="M65.0995 13.3863C64.2264 13.3863 63.4939 13.5733 62.9022 13.9471C62.3139 14.321 61.8511 14.745 61.512 15.2157C61.1763 15.683 60.939 16.0552 60.7999 16.3306C60.0167 18.0982 59.4063 20.0261 58.9689 22.1125C58.5349 24.2005 58.3179 26.5974 58.3179 29.303H55.1169V0.0400391H58.3179V23.9952C58.6569 21.4281 59.2164 19.1548 59.9997 17.1786C60.7864 15.2023 61.7697 13.3663 62.9497 11.6705C64.1297 9.9713 65.4623 8.25044 66.9509 6.50955C66.9509 6.50955 67.0899 6.33596 67.3713 5.98878C67.6511 5.6416 67.9715 5.20763 68.3343 4.68687C68.7005 4.16276 69.0227 3.60361 69.3041 3.01107C69.5838 2.4152 69.7313 1.8477 69.7449 1.30857C69.7618 0.766106 69.5448 0.343819 69.0939 0.0400391H76.0857C75.3533 0.178576 74.6141 0.453981 73.8681 0.867922C73.1255 1.28186 72.4457 1.72585 71.8269 2.19654C71.2114 2.6689 70.7147 3.07116 70.3349 3.40498C69.9585 3.73547 69.7551 3.89904 69.7246 3.89904C68.097 5.74676 66.6016 7.501 65.2419 9.16011C63.8805 10.8159 62.6954 12.5851 61.6883 14.4679C62.0495 14.1074 62.5106 13.7836 63.0718 13.4931C63.6364 13.1994 64.3128 13.0525 65.0995 13.0525C66.5864 13.0525 67.8206 13.3246 68.8023 13.867C69.7822 14.4062 70.6028 15.1189 71.264 16.0035C71.9235 16.8848 72.4982 17.8646 72.9865 18.9411C73.4782 20.0194 73.9648 21.096 74.4446 22.1726C75.004 23.3877 75.5584 24.5143 76.1061 25.5509C76.652 26.5891 77.2759 27.4186 77.9778 28.0412C78.678 28.6604 79.5206 28.9692 80.5073 28.9692V29.303C78.3135 29.303 76.5808 29.0143 75.3058 28.4351C74.0309 27.8526 73.0628 27.0915 72.4033 26.1517C71.7421 25.2137 71.2792 24.1788 71.0131 23.0472C70.7452 21.9122 70.5265 20.7805 70.3552 19.6489C70.1874 18.5139 69.9568 17.4773 69.6635 16.5376C69.3685 15.5996 68.8785 14.8401 68.1919 14.2609C67.5036 13.6784 66.4728 13.3863 65.0995 13.3863Z" fill="#7A876D"/>
<path d="M86.5659 12.1044V29.303H83.365V0.0400391H86.5659V9.82108C86.5659 11.0362 86.7761 11.9559 87.1966 12.5785C87.6171 13.2027 88.1765 13.625 88.8784 13.847C89.5837 14.0657 90.3704 14.1675 91.2385 14.1541C92.1099 14.1408 93.0017 14.1074 93.9104 14.054C94.8225 13.9972 95.7008 13.9905 96.5417 14.0339C97.386 14.074 98.1235 14.2676 98.7525 14.6148C99.3849 14.9586 99.8545 15.5428 100.163 16.3707V0.0400391H103.445V29.303H100.163V18.6073C100.163 17.4189 99.9528 16.5159 99.5324 15.8967C99.1119 15.2741 98.5507 14.8602 97.8505 14.6549C97.1486 14.4462 96.3687 14.3411 95.5109 14.3411C94.6564 14.3411 93.7714 14.3711 92.8593 14.4278C91.9454 14.4813 91.0689 14.4813 90.228 14.4278C89.3871 14.3711 88.6428 14.1775 87.9968 13.847C87.3492 13.5132 86.8728 12.9323 86.5659 12.1044Z" fill="#7A876D"/>
<path d="M106.309 29.303V0.0400391H109.469V29.303H106.309Z" fill="#7A876D"/>
</svg>
